<svg xmlns="http://www.w3.org/2000/svg" width="180" height="180" viewBox="0 0 180 180">
  <rect width="180" height="180" rx="34" fill="#0a5ca8"/>
  <rect x="14" y="124" width="152" height="8" rx="4" fill="#d0dae3"/>
  <circle cx="14" cy="128" r="6" fill="#7b8fa1"/>
  <circle cx="39" cy="128" r="6" fill="#7b8fa1"/>
  <circle cx="64" cy="128" r="6" fill="#7b8fa1"/>
  <circle cx="90" cy="128" r="6" fill="#7b8fa1"/>
  <circle cx="115" cy="128" r="6" fill="#7b8fa1"/>
  <circle cx="140" cy="128" r="6" fill="#7b8fa1"/>
  <circle cx="166" cy="128" r="6" fill="#7b8fa1"/>
  <path d="M35 84c0-8 7-14 15-14h55c7 0 14 3 19 8l11 11c3 3 3 9-1 12l-14 9H35V84z" fill="#ffffff"/>
  <text x="90" y="44" text-anchor="middle" font-size="24" font-family="sans-serif" fill="#ffffff">的当て</text>
</svg>
