<svg xmlns="http://www.w3.org/2000/svg" width="512" height="512" viewBox="0 0 512 512">
  <rect width="512" height="512" rx="92" fill="#0a5ca8"/>
  <rect x="40" y="342" width="432" height="20" rx="10" fill="#d0dae3"/>
  <circle cx="40" cy="352" r="16" fill="#7b8fa1"/>
  <circle cx="112" cy="352" r="16" fill="#7b8fa1"/>
  <circle cx="184" cy="352" r="16" fill="#7b8fa1"/>
  <circle cx="256" cy="352" r="16" fill="#7b8fa1"/>
  <circle cx="328" cy="352" r="16" fill="#7b8fa1"/>
  <circle cx="400" cy="352" r="16" fill="#7b8fa1"/>
  <circle cx="472" cy="352" r="16" fill="#7b8fa1"/>
  <path d="M98 236c0-22 18-38 40-38h149c22 0 43 10 58 24l34 32c8 8 7 22-3 28l-46 30H98v-76z" fill="#ffffff"/>
  <circle cx="179" cy="332" r="17" fill="#073b69"/>
  <circle cx="279" cy="332" r="17" fill="#073b69"/>
  <text x="256" y="136" text-anchor="middle" font-size="68" font-family="sans-serif" fill="#ffffff">的当て</text>
</svg>
